<svg xmlns="http://www.w3.org/2000/svg" height="24px" viewBox="0 0 192 192" width="24px"><style type="text/css">.Graphic_x0020_Style{fill:url(#SVGID_1_);} .st0{opacity:0;} .st1{fill:url(#SVGID_2_);} .st2{fill:url(#SVGID_3_);} .st3{fill:url(#SVGID_4_);} .st4{fill:url(#SVGID_5_);} .st5{fill:none;} .st6{opacity:0.25;} .st7{fill:#FFFFFF;} .st8{opacity:0.12;} .st9{fill:#231F20;} .st10{opacity:0.2;fill:#231F20;} .st11{opacity:0.12;fill:#231F20;}</style><linearGradient gradientUnits="userSpaceOnUse" id="SVGID_1_" x2="-1"><stop offset="0" stop-color="#FFE000"/><stop offset=".409" stop-color="#FFBD00"/><stop offset=".775" stop-color="#FFA500"/><stop offset="1" stop-color="#FF9C00"/></linearGradient><path class="st0" d="M0 0h192v192H0z"/><linearGradient gradientUnits="userSpaceOnUse" id="SVGID_2_" x1="163.779" x2="45.221" y1="110.207" y2="110.207"><stop offset="0" stop-color="#FFE000"/><stop offset=".409" stop-color="#FFBD00"/><stop offset=".775" stop-color="#FFA500"/><stop offset="1" stop-color="#FF9C00"/></linearGradient><path class="st1" d="M110.2 111.22l49.8 49.8V59.39l-49.8 49.8z"/><linearGradient gradientUnits="userSpaceOnUse" id="SVGID_3_" x1="105.972" x2="10.114" y1="47.589" y2="143.447"><stop offset="0" stop-color="#00A0FF"/><stop offset=".007" stop-color="#00A1FF"/><stop offset=".26" stop-color="#00BEFF"/><stop offset=".512" stop-color="#00D2FF"/><stop offset=".76" stop-color="#00DFFF"/><stop offset="1" stop-color="#00E3FF"/></linearGradient><path class="st2" d="M110.2 109.19L49 48h-7.05c-5.5 0-9.95 4.22-9.95 9.72V92.9c0 3.55 2.88 6.43 6.43 6.43 1.56 0 2.99-.56 4.1-1.48l1.05-.83c3.01-2.64 6.96-4.23 11.28-4.23 9.46 0 17.14 7.73 17.14 17.2 0 9.47-7.68 17.08-17.14 17.08-4.32 0-8.27-1.59-11.28-4.23l-1.05-.83c-1.11-.92-2.54-1.48-4.1-1.48-3.55 0-6.43 2.88-6.43 6.43v34.76c0 5.5 4.45 10.28 9.95 10.28h7.47l60.78-60.78v-2.03z"/><linearGradient gradientUnits="userSpaceOnUse" id="SVGID_4_" x1="35.008" x2="93.393" y1="-18.132" y2="40.253"><stop offset="0" stop-color="#32A071"/><stop offset=".069" stop-color="#2DA771"/><stop offset=".476" stop-color="#15CF74"/><stop offset=".801" stop-color="#06E775"/><stop offset="1" stop-color="#00F076"/></linearGradient><path class="st3" d="M160 60.4v-2.68c0-5.5-4.45-9.72-9.95-9.72h-37.02c-3.55 0-6.43-2.77-6.43-6.32 0-1.56.56-3.1 1.48-4.21l.83-1.05c2.64-3.01 4.23-6.96 4.23-11.28C113.14 15.68 105.47 8 96 8s-17.14 7.69-17.14 17.15c0 4.32 1.59 8.28 4.23 11.29l.83 1.08c.92 1.11 1.48 2.6 1.48 4.16 0 3.55-2.88 6.32-6.43 6.32H47.99l62.21 62.21L160 60.4z"/><linearGradient gradientUnits="userSpaceOnUse" id="SVGID_5_" x1="135.545" x2="4.794" y1="137.663" y2="268.414"><stop offset="0" stop-color="#FF3A44"/><stop offset="1" stop-color="#C31162"/></linearGradient><path class="st4" d="M48.4 172h101.65c5.5 0 9.95-4.78 9.95-10.28v-1.71l-49.8-49.81L48.4 172z"/><path class="st5" d="M160 57.72v104c0 5.5-4.45 10.28-9.95 10.28H41.95c-5.5 0-9.95-4.78-9.95-10.28v-34.76c0-3.55 2.88-6.43 6.43-6.43 1.56 0 2.99.56 4.1 1.48l1.05.83c3.01 2.64 6.96 4.23 11.28 4.23 9.46 0 17.14-7.61 17.14-17.08s-7.68-17.2-17.14-17.2c-4.32 0-8.27 1.59-11.28 4.23l-1.05.83c-1.11.92-2.54 1.48-4.1 1.48-3.55 0-6.43-2.88-6.43-6.43V57.72c0-5.5 4.45-9.72 9.95-9.72h37.02c3.55 0 6.43-2.77 6.43-6.32 0-1.56-.56-3.05-1.48-4.16l-.83-1.08c-2.64-3.01-4.23-6.97-4.23-11.29C78.86 15.69 86.53 8 96 8s17.14 7.68 17.14 17.14c0 4.32-1.59 8.27-4.23 11.28l-.83 1.05c-.92 1.11-1.48 2.65-1.48 4.21 0 3.55 2.88 6.32 6.43 6.32h37.02c5.5 0 9.95 4.22 9.95 9.72z"/><g class="st6"><path class="st7" d="M96 9c9.31 0 16.86 7.43 17.12 16.66.01-.18.02-.35.02-.52C113.14 15.68 105.47 8 96 8s-17.14 7.69-17.14 17.15c0 .18.02.35.02.52C79.14 16.44 86.69 9 96 9zM41.95 49h37.02c3.55 0 6.43-2.77 6.43-6.32 0-.12-.03-.24-.03-.36-.32 3.24-3.07 5.68-6.4 5.68H41.95c-5.5 0-9.95 4.22-9.95 9.72v1c0-5.5 4.45-9.72 9.95-9.72zM38.43 121.53c1.56 0 2.99.56 4.1 1.48l1.05.83c3.01 2.64 6.96 4.23 11.28 4.23 9.46 0 17.14-7.61 17.14-17.08 0-.17-.02-.33-.03-.5-.27 9.23-7.82 16.58-17.11 16.58-4.32 0-8.27-1.59-11.28-4.23l-1.05-.83c-1.11-.92-2.54-1.48-4.1-1.48-3.55 0-6.43 2.88-6.43 6.43v1c0-3.55 2.88-6.43 6.43-6.43zM150.05 48h-37.02c-3.34 0-6.08-2.45-6.4-5.69-.01.12-.03.24-.03.37 0 3.55 2.88 6.32 6.43 6.32h37.02c5.5 0 9.95 4.22 9.95 9.72v-1c0-5.5-4.45-9.72-9.95-9.72z"/></g><g class="st8"><path class="st9" d="M83.92 37.52c.85 1.02 1.37 2.37 1.45 3.8.02-.21.03-.42.03-.64 0-1.56-.56-3.05-1.48-4.16l-.83-1.08c-2.53-2.89-4.08-6.65-4.21-10.77 0 .16-.02.31-.02.48 0 4.32 1.59 8.28 4.23 11.29l.83 1.08zM108.08 36.47c-.92 1.11-1.48 2.65-1.48 4.21 0 .21.01.43.03.63.08-1.43.6-2.82 1.45-3.84l.83-1.05c2.64-3.01 4.23-6.96 4.23-11.28 0-.16-.02-.32-.02-.48-.12 4.11-1.67 7.87-4.21 10.76l-.83 1.05zM38.43 99.33c1.56 0 2.99-.56 4.1-1.48l1.05-.83c3.01-2.64 6.96-4.23 11.28-4.23 9.29 0 16.85 7.46 17.11 16.7 0-.17.03-.33.03-.5 0-9.47-7.68-17.2-17.14-17.2-4.32 0-8.27 1.59-11.28 4.23l-1.05.83c-1.11.92-2.54 1.48-4.1 1.48-3.55 0-6.43-2.88-6.43-6.43v1c0 3.55 2.88 6.43 6.43 6.43z"/></g><path class="st10" d="M150.05 171H49.4l-1 1h101.65c5.5 0 9.95-4.78 9.95-10.28v-1c0 5.5-4.45 10.28-9.95 10.28z"/><path class="st11" d="M41.95 171c-5.5 0-9.95-4.78-9.95-10.28v1c0 5.5 4.45 10.28 9.95 10.28h6.45l1-1h-7.45z"/></svg>